<svg width="29" height="28" viewBox="0 0 29 28" fill="none" xmlns="http://www.w3.org/2000/svg">
<path d="M14.4995 0.812561C14.5811 0.812579 14.6607 0.83592 14.73 0.878967C14.7993 0.922053 14.856 0.983512 14.8921 1.0567L18.7153 8.8028L18.8315 9.03815L19.0923 9.07623L27.6392 10.3174H27.6401C27.721 10.3291 27.7974 10.3635 27.8599 10.4161C27.9222 10.4687 27.9684 10.5377 27.9937 10.6153C28.0189 10.693 28.0221 10.7762 28.0024 10.8555C27.9877 10.915 27.9606 10.9705 27.9233 11.0186L27.8823 11.0645L21.6978 17.0928L21.5093 17.2764L21.5532 17.5362L23.0132 26.0508C23.0268 26.1311 23.0175 26.2138 22.9868 26.2891C22.956 26.3644 22.9052 26.4298 22.8394 26.4776C22.7734 26.5255 22.6951 26.5537 22.6138 26.5596C22.5326 26.5655 22.4515 26.5486 22.3794 26.5108L14.7329 22.4913L14.5005 22.3692L14.2671 22.4913L6.62256 26.5108C6.55029 26.5488 6.46863 26.5665 6.38721 26.5606C6.30581 26.5547 6.22763 26.5256 6.16162 26.4776C6.09565 26.4296 6.0439 26.3637 6.01318 26.2881C5.98264 26.2127 5.97403 26.1301 5.98779 26.0499L7.44775 17.5362L7.49268 17.2764L7.3042 17.0928L1.11865 11.0645V11.0635L1.07764 11.0186C1.0403 10.9706 1.01327 10.915 0.998535 10.8555C0.978937 10.7764 0.9821 10.6928 1.00732 10.6153C1.03254 10.538 1.07894 10.4694 1.14111 10.4171C1.20357 10.3646 1.28007 10.3299 1.36084 10.3184H1.36182L9.90967 9.07623L10.1694 9.03815L10.2856 8.8028L14.1069 1.0567C14.143 0.983694 14.199 0.922039 14.2681 0.878967C14.3374 0.835881 14.4179 0.812561 14.4995 0.812561Z" stroke="#FF8183"/>
</svg>
