<svg width="213" height="38" viewBox="0 0 213 38" fill="none" xmlns="http://www.w3.org/2000/svg">
<path d="M54.5833 34.0733C53.5217 34.0733 52.2084 33.4412 50.6432 32.177C49.5298 31.9992 48.5818 31.7622 47.7992 31.4659C47.0141 31.1696 46.3624 30.814 45.8439 30.3992C45.1255 29.782 44.4935 28.9573 43.9479 27.9301C43.4097 26.898 43.1382 25.9029 43.1382 24.9474C43.1382 24.2313 43.3061 23.5894 43.6418 23.0215C44.417 21.6536 45.3996 20.9671 46.5846 20.9671C47.4857 20.9671 48.0115 21.7276 48.1646 23.2486C48.3472 24.6659 48.4954 25.7943 48.6089 26.6363C48.7274 27.4733 48.8262 28.019 48.9052 28.2758C49.2854 29.54 49.9421 30.6091 50.8703 31.4857C51.9492 31.7153 53.1218 31.8313 54.3858 31.8313C57.1706 31.8313 59.8368 31.3005 62.3846 30.2412C63.4634 29.782 64.52 29.1795 65.5544 28.4338C66.5864 27.6832 67.4356 26.8585 68.1022 25.9548C68.7737 25.0536 69.1094 24.177 69.1094 23.3276C69.1094 22.1178 68.038 21.1745 65.9001 20.5029L59.1061 18.9622C57.7087 18.6536 56.5929 18.1079 55.7584 17.3227C54.9215 16.5326 54.5043 15.6338 54.5043 14.6264C54.5043 13.0857 55.4671 11.5424 57.3977 9.9943C58.3778 9.19924 59.5233 8.52269 60.8342 7.96961C62.15 7.41158 63.535 6.98195 64.9916 6.68566C66.4457 6.38936 67.8454 6.24121 69.1884 6.24121C71.0894 6.24121 72.7163 6.53751 74.0667 7.1301C75.422 7.72269 76.2688 8.58936 76.6046 9.72763C76.6836 9.98442 76.7231 10.2684 76.7231 10.577C76.7231 12.1449 75.9355 13.2387 74.3629 13.856C73.4075 14.2461 72.5978 14.4387 71.9337 14.4387C71.5189 14.4387 71.1955 14.3597 70.9659 14.2017C70.9116 14.1573 70.8869 14.0931 70.8869 14.0141C70.8869 13.8313 71.2474 13.7276 71.9732 13.7079C72.4077 13.6832 72.7657 13.6437 73.0496 13.5894C73.331 13.5375 73.5384 13.4857 73.6717 13.4313C74.6444 12.9178 75.1332 12.1573 75.1332 11.1499C75.1332 10.6363 74.99 10.098 74.7086 9.5301C73.9112 8.06343 71.9164 7.32763 68.7243 7.32763C67.564 7.32763 66.3667 7.45109 65.1298 7.69306C63.8905 7.93751 62.7203 8.30047 61.6143 8.77948C60.5083 9.25356 59.5652 9.85356 58.7901 10.577C57.452 11.8091 56.7854 12.9153 56.7854 13.8955C56.7854 14.6461 57.1508 15.3128 57.8816 15.8906C58.6172 16.4708 59.7331 16.9029 61.2292 17.1844L65.7816 18.0338C67.5393 18.3696 68.9564 18.8684 70.0377 19.5252C71.1165 20.177 71.6572 21.1745 71.6572 22.5178C71.6572 23.7029 71.3609 24.814 70.7684 25.8461C70.1759 26.8733 69.381 27.7918 68.3886 28.6017C67.4011 29.4116 66.2753 30.0881 65.0113 30.6264C62.1525 31.8906 58.7802 32.5227 54.8894 32.5227C54.4006 32.5227 53.9118 32.5079 53.4181 32.4832C52.9292 32.456 52.4552 32.419 51.9961 32.3745C52.3516 32.577 52.8058 32.782 53.3588 32.9869C53.9167 33.1894 54.5562 33.3844 55.2746 33.5696C55.3536 33.5943 55.3931 33.6486 55.3931 33.7276C55.3931 33.9573 55.1215 34.0733 54.5833 34.0733ZM49.4779 31.0906C48.7867 30.3202 48.246 29.5252 47.8584 28.7005C47.2906 27.4116 46.866 25.8264 46.5846 23.9499C46.3722 22.582 46.1525 21.8955 45.9229 21.8955C45.718 21.8955 45.4415 22.0511 45.0934 22.3597C44.7429 22.6708 44.5701 23.3276 44.5701 24.335C44.5701 26.2906 45.2662 27.9894 46.6636 29.4313C47.3548 30.1573 48.2929 30.7079 49.4779 31.0906Z" fill="#FF8183"/>
<path d="M74.6787 30.9031C73.8492 30.9031 73.1012 30.6389 72.4371 30.113C71.7656 29.5797 71.4298 28.876 71.4298 27.9994C71.4298 26.1772 72.5506 24.0883 74.7873 21.7377C77.0832 19.3673 79.1323 18.1821 80.9296 18.1821C81.5221 18.1821 82.0059 18.3451 82.3812 18.6661C82.7564 18.9895 82.9441 19.3846 82.9441 19.8513C82.9441 21.2932 81.7986 22.7105 79.5076 24.0982C77.4733 25.3377 75.7575 25.955 74.3627 25.955C74.1578 25.955 73.9776 25.9303 73.8196 25.876C73.4369 26.5747 73.2468 27.3081 73.2468 28.0784C73.2468 29.4216 73.8788 30.0932 75.1428 30.0932C76.4266 30.0932 78.0856 29.2315 80.1198 27.5056C81.6924 26.2414 83.0329 24.9031 84.1389 23.4858C84.3685 23.1772 84.5759 23.0216 84.7611 23.0216C84.9117 23.0216 84.9882 23.0982 84.9882 23.2488C84.9882 23.4068 84.8845 23.629 84.6821 23.9105C83.9563 24.8587 83.1835 25.7352 82.3614 26.5377C81.5369 27.3352 80.6481 28.0686 79.6952 28.7402C77.7128 30.1821 76.0414 30.9031 74.6787 30.9031ZM74.9058 25.1056C75.8859 25.1056 77.1598 24.6167 78.7274 23.634C79.2459 23.2735 79.7569 22.8685 80.2581 22.4192C80.7568 21.9648 81.169 21.5081 81.4924 21.0463C81.8134 20.5871 81.9763 20.1747 81.9763 19.8118C81.9763 19.476 81.7048 19.3081 81.1666 19.3081C80.3963 19.3081 79.3125 19.8883 77.9177 21.0463C77.2511 21.6142 76.6092 22.2315 75.9921 22.9031C75.3724 23.5747 74.8416 24.2834 74.4022 25.0266C74.5602 25.0809 74.7281 25.1056 74.9058 25.1056Z" fill="#FF8183"/>
<path d="M92.4898 30.4783C91.7911 30.4783 91.2999 30.2808 91.0184 29.8857C90.7345 29.4857 90.5938 28.987 90.5938 28.3944C90.5938 26.9005 91.1098 25.3005 92.1442 23.5944L94.6129 19.5746C92.8601 20.866 91.1221 22.4758 89.3989 24.4042C88.9299 24.9252 88.4065 25.5351 87.8288 26.2314C87.2486 26.9228 86.6142 27.7203 85.9229 28.6215C84.9947 29.8339 84.4367 30.4388 84.254 30.4388C83.8985 30.4388 83.6023 30.2783 83.3653 29.9549C83.1332 29.6339 83.0197 29.3425 83.0197 29.0857C83.0197 28.8832 83.0814 28.503 83.2073 27.9499C83.3381 27.3919 83.4961 26.9079 83.6813 26.4981C83.859 26.0586 84.0417 25.6265 84.2343 25.2042C84.4318 24.7771 84.6194 24.3598 84.7972 23.9499L82.4765 26.3795C82.4321 26.4339 82.279 26.587 82.0223 26.8437C81.7606 27.1005 81.5532 27.2289 81.4002 27.2289C81.2693 27.2289 81.2027 27.14 81.2027 26.9623C81.2027 26.9104 81.2224 26.8413 81.2619 26.7549C81.3014 26.6635 81.3878 26.5524 81.5187 26.4191C81.9013 26.0314 82.2963 25.6191 82.7037 25.1845C83.1184 24.745 83.5455 24.2413 83.9874 23.6734C84.217 23.3919 84.5626 22.9598 85.0243 22.3795C85.4909 21.8018 86.0019 21.1795 86.5549 20.5129C87.1079 19.8413 87.6313 19.2191 88.125 18.6462C88.2485 18.4684 88.3867 18.3474 88.5398 18.2808C88.6978 18.2166 88.8015 18.182 88.8558 18.182C89.552 18.182 89.9025 18.4561 89.9025 19.0018C89.9025 19.1549 89.863 19.3079 89.784 19.466C87.4659 22.661 86.0735 25.0931 85.6069 26.7647C88.5941 23.7771 90.9987 21.5277 92.8157 20.0191C94.6327 18.5129 95.9263 17.7573 96.6965 17.7573C97.1113 17.7573 97.4273 17.824 97.6445 17.9549C97.8618 18.0882 97.9704 18.3302 97.9704 18.6857C97.9704 18.8191 97.9605 18.9228 97.9408 19.0018C97.8618 19.1795 97.331 19.9005 96.3509 21.1647C95.7584 21.8833 95.235 22.5376 94.7808 23.1302C94.3315 23.7228 93.9661 24.2413 93.6847 24.6808C93.223 25.3993 92.8749 26.0734 92.6379 26.7055C92.4059 27.3376 92.2923 27.8758 92.2923 28.3153C92.2923 28.4931 92.317 28.7104 92.3713 28.9672C92.4231 29.224 92.5787 29.3524 92.8354 29.3524C93.4279 29.3524 94.3562 28.8388 95.6202 27.8116C96.2127 27.2981 96.7657 26.7795 97.2792 26.2512C97.7927 25.7178 98.2815 25.1944 98.7505 24.6808C98.8493 24.5771 99.0122 24.3746 99.2443 24.0783C99.4813 23.782 99.6245 23.6339 99.6788 23.6339C99.7775 23.6339 99.8269 23.74 99.8269 23.9499C99.8269 24.0487 99.7677 24.224 99.6492 24.4734C99.5356 24.7178 99.4171 24.903 99.2937 25.0265C99.0023 25.3623 98.5827 25.8265 98.0297 26.4191C97.4767 27.0116 96.857 27.6191 96.1732 28.2363C95.4943 28.8561 94.8326 29.387 94.1883 29.8265C93.5415 30.261 92.9761 30.4783 92.4898 30.4783Z" fill="#FF8183"/>
<path d="M102.651 30.4781C101.439 30.4781 100.543 30.0805 99.9648 29.283C99.3847 28.4805 98.9132 27.3719 98.5527 25.9546C98.0935 26.4163 97.7701 26.646 97.585 26.646C97.4615 26.646 97.3973 26.5447 97.3973 26.3398C97.3973 26.1892 97.4615 26.0484 97.585 25.9151C97.585 25.9151 97.9158 25.5176 98.5725 24.72C99.2292 23.9176 100.345 22.7941 101.92 21.3521L106.788 16.799C107.453 16.1546 107.986 15.6632 108.388 15.3274C108.788 14.9916 109.079 14.8237 109.257 14.8237C110.079 14.8237 110.492 15.1348 110.492 15.7521C110.492 16.0632 110.324 16.4237 109.988 16.8385C109.731 17.1422 109.544 17.3793 109.425 17.5497C109.312 17.7151 109.242 17.8114 109.218 17.8361C108.756 18.641 108.331 20.0731 107.944 22.1324C107.66 23.6484 107.413 24.8953 107.203 25.8756C106.998 26.8583 106.833 27.5645 106.709 27.999C107.788 27.9743 108.855 27.641 109.909 27.0015C110.968 26.3571 112.104 25.3003 113.316 23.8311C113.368 23.7793 113.444 23.7027 113.543 23.604C113.647 23.5003 113.753 23.446 113.859 23.446C114.01 23.446 114.086 23.5102 114.086 23.6336C114.086 23.7669 114.047 23.8978 113.968 24.0287C113.894 24.1546 113.819 24.2706 113.74 24.3743C112.943 25.3225 112.195 26.1003 111.499 26.7052C110.8 27.3126 110.067 27.7892 109.297 28.1373C108.526 28.4879 107.611 28.7768 106.551 29.0064L105.317 29.8163C104.981 30.0534 104.579 30.2262 104.112 30.3299C103.651 30.4287 103.164 30.4781 102.651 30.4781ZM103.115 28.5027C103.707 28.5027 104.196 28.362 104.586 28.0781C104.868 27.9274 105.144 27.5003 105.416 26.7941C105.685 26.083 105.949 25.199 106.206 24.1373C106.408 23.2361 106.571 22.3546 106.69 21.4904C106.808 20.6287 106.917 19.799 107.016 19.0015L107.174 17.6879C106.581 18.1225 105.833 18.7546 104.932 19.5842C104.028 20.4089 103.14 21.2706 102.266 22.1719C101.389 23.0682 100.824 23.7299 100.567 24.1571C100.31 24.5867 100.167 24.9027 100.143 25.1052C100.036 26.1324 100.286 26.9571 100.893 27.5743C101.498 28.1941 102.239 28.5027 103.115 28.5027Z" fill="#FF8183"/>
<path d="M113.896 30.8241C112.736 30.8241 112.158 30.0908 112.158 28.6216C112.158 28.0562 112.329 27.3821 112.672 26.5969C113.02 25.8068 113.516 24.9747 114.163 24.0982C114.163 24.0982 113.929 24.3204 113.462 24.7599C113 25.1945 112.474 25.7476 111.882 26.4192C111.783 26.5253 111.655 26.5772 111.497 26.5772C111.398 26.5772 111.349 26.513 111.349 26.3797C111.349 26.2488 111.465 26.0315 111.694 25.7278L117.027 19.4661C117.698 18.6908 118.432 18.3006 119.229 18.3006C119.821 18.3006 120.118 18.5352 120.118 19.0019C120.118 19.1797 120.039 19.3476 119.881 19.5056C119.392 19.9673 118.794 20.6216 118.083 21.471C117.377 22.3204 116.691 23.2365 116.02 24.2167C115.348 25.1994 114.785 26.1327 114.331 27.0216C113.882 27.9105 113.659 28.6266 113.659 29.1648C113.659 29.6266 113.812 29.8562 114.124 29.8562C114.306 29.8562 114.59 29.7871 114.973 29.6488C115.36 29.5056 115.876 29.2093 116.523 28.7599C117.168 28.3056 117.94 27.6019 118.844 26.6463C118.994 26.4957 119.407 26.034 120.078 25.2636C120.75 24.4883 121.651 23.3772 122.784 21.9352C124.791 19.434 126.104 18.1821 126.724 18.1821C127.573 18.1821 128.037 18.5327 128.116 19.229C128.168 19.4611 127.628 20.2216 126.497 21.5105C125.028 23.2883 124.021 24.5624 123.475 25.3327C122.473 26.8019 121.974 27.95 121.974 28.7797C121.974 29.3476 122.164 29.629 122.547 29.629C122.935 29.629 123.431 29.4414 124.038 29.0661C124.643 28.6908 125.282 28.2142 125.954 27.634C126.625 27.0562 127.272 26.4488 127.899 25.8167C128.531 25.1846 129.079 24.5994 129.548 24.0587C129.699 23.8809 129.854 23.792 130.012 23.792C130.163 23.792 130.24 23.8685 130.24 24.0192C130.24 24.0735 130.225 24.1525 130.2 24.2562C130.173 24.355 130.096 24.471 129.973 24.6019C129.558 25.0636 129.027 25.6365 128.383 26.3204C127.736 27.0068 127.043 27.6834 126.299 28.355C125.554 29.0216 124.833 29.5747 124.137 30.0142C123.438 30.4488 122.846 30.6661 122.359 30.6661C121.767 30.6661 121.248 30.5081 120.809 30.192C120.374 29.871 120.157 29.4216 120.157 28.8488C120.157 28.2834 120.246 27.7105 120.424 27.1303C120.606 26.5525 120.75 26.0587 120.848 25.6488C119.636 27.0661 118.572 28.1476 117.659 28.8982C116.75 29.6439 115.985 30.15 115.368 30.4192C114.748 30.6883 114.257 30.8241 113.896 30.8241Z" fill="#FF8183"/>
<path d="M131.089 30.597C130.47 30.597 129.85 30.3797 129.233 29.9451C128.613 29.5056 128.27 28.9871 128.196 28.3945C127.939 26.4068 129.186 24.0463 131.939 21.313C134.669 18.5871 137.133 17.2241 139.325 17.2241C139.918 17.2241 140.382 17.3673 140.717 17.6488C140.895 17.8266 141.026 18.071 141.112 18.3797C141.204 18.6908 141.275 18.8439 141.33 18.8439C141.433 18.8439 141.522 18.8241 141.596 18.7846C141.675 18.7451 141.767 18.7254 141.873 18.7254C142.181 18.7254 142.45 18.8439 142.683 19.0809C142.912 19.313 143.041 19.5155 143.068 19.6933C143.092 19.7476 142.27 21.0217 140.599 23.5155C138.92 25.9649 138.16 27.6291 138.318 28.5031C138.441 29.0957 138.725 29.392 139.167 29.392C140.503 29.392 142.949 27.1772 146.504 22.7451C146.583 22.6463 146.662 22.597 146.741 22.597C146.865 22.597 146.929 22.6858 146.929 22.8636C146.929 23.0686 146.813 23.3254 146.583 23.634C143.31 28.0389 140.799 30.2414 139.049 30.2414C138.816 30.2414 138.599 30.2068 138.397 30.1328C137.264 29.6933 136.698 28.8389 136.698 27.5747C136.698 27.1402 136.748 26.7031 136.846 26.2612L134.457 28.5821C133.731 29.3081 133.079 29.8241 132.501 30.1328C131.921 30.4414 131.45 30.597 131.089 30.597ZM130.744 29.7377C132.237 29.7377 134.272 28.1056 136.846 24.8389L140.945 19.1896C140.74 18.8291 140.404 18.6463 139.937 18.6463C138.37 18.6463 136.247 19.9105 133.568 22.4389C130.783 25.0142 129.532 27.1402 129.815 28.8192C129.946 29.4315 130.255 29.7377 130.744 29.7377Z" fill="#FF8183"/>
<path d="M147.355 30.4783C146.61 30.4783 145.916 30.2906 145.272 29.9153C144.625 29.54 144.304 28.9153 144.304 28.0388C144.304 26.8289 144.733 25.3869 145.598 23.7129C146.459 22.0413 147.447 20.303 148.56 18.4981C151.574 13.5993 153.71 11.1499 154.969 11.1499C155.226 11.1499 155.487 11.2487 155.759 11.4462C156.035 11.6388 156.184 11.8487 156.203 12.0783L153.507 15.7129C152.446 17.1301 151.493 18.4363 150.644 19.6339C149.794 20.8339 149.059 21.9104 148.442 22.8635C148.13 23.3524 147.782 23.9055 147.395 24.5227C147.012 25.1425 146.674 25.782 146.378 26.4388C146.081 27.0981 145.933 27.7598 145.933 28.424C145.933 28.7351 146.022 29.0141 146.2 29.2635C146.378 29.5079 146.699 29.6289 147.168 29.6289C147.99 29.6289 149.069 29.1845 150.407 28.2956C151.75 27.4067 153.078 26.1771 154.396 24.6018C154.52 24.4511 154.658 24.3104 154.811 24.1771C154.969 24.0462 155.1 23.9795 155.206 23.9795C155.329 23.9795 155.394 24.0585 155.394 24.2166C155.394 24.2956 155.307 24.4437 155.137 24.661C154.971 24.8783 154.841 25.0536 154.742 25.1845L153.814 26.2215C153.3 26.7894 152.688 27.4067 151.977 28.0783C151.266 28.7499 150.518 29.3203 149.735 29.7869C148.95 30.2487 148.158 30.4783 147.355 30.4783Z" fill="#FF8183"/>
<path d="M155.471 30.4783C154.824 30.4783 154.321 30.1771 153.96 29.5697C153.605 28.9647 153.427 28.3795 153.427 27.8116C153.427 26.266 154.545 24.0981 156.785 21.3129C159.056 18.5079 160.885 17.1055 162.275 17.1055C163.591 17.1055 164.25 17.8018 164.25 19.1894C164.25 19.4018 164.23 19.6215 164.191 19.8511C164.151 20.0832 164.104 20.3252 164.053 20.582C164.104 20.661 164.233 20.7005 164.438 20.7005C165.134 20.7005 165.961 20.4536 166.916 19.9598C166.889 20.4018 165.87 21.0339 163.855 21.8561C164.137 22.7055 163.287 24.3302 161.307 26.7252C159.273 29.2289 157.535 30.4783 156.093 30.4783H155.471ZM156.172 29.3129C157.278 29.3129 158.693 28.2956 160.419 26.261C162.09 24.2808 162.927 22.8511 162.927 21.9746C162.517 21.745 162.004 21.1524 161.386 20.1968C160.51 20.1968 159.246 21.2536 157.594 23.3672C155.975 25.4289 155.19 27.0116 155.244 28.1178C155.269 28.9153 155.58 29.3129 156.172 29.3129Z" fill="#FF8183"/>
<path d="M174.526 30.4783C173.827 30.4783 173.336 30.2808 173.054 29.8857C172.77 29.4857 172.63 28.987 172.63 28.3944C172.63 26.9005 173.146 25.3005 174.18 23.5944L176.649 19.5746C174.896 20.866 173.158 22.4758 171.435 24.4042C170.966 24.9252 170.442 25.5351 169.865 26.2314C169.285 26.9228 168.65 27.7203 167.959 28.6215C167.031 29.8339 166.473 30.4388 166.29 30.4388C165.935 30.4388 165.638 30.2783 165.401 29.9549C165.169 29.6339 165.056 29.3425 165.056 29.0857C165.056 28.8832 165.117 28.503 165.243 27.9499C165.374 27.3919 165.532 26.9079 165.717 26.4981C165.895 26.0586 166.078 25.6265 166.27 25.2042C166.468 24.7771 166.655 24.3598 166.833 23.9499L164.513 26.3795C164.468 26.4339 164.315 26.587 164.058 26.8437C163.797 27.1005 163.589 27.2289 163.436 27.2289C163.305 27.2289 163.239 27.14 163.239 26.9623C163.239 26.9104 163.258 26.8413 163.298 26.7549C163.337 26.6635 163.424 26.5524 163.555 26.4191C163.937 26.0314 164.332 25.6191 164.74 25.1845C165.154 24.745 165.581 24.2413 166.023 23.6734C166.253 23.3919 166.599 22.9598 167.06 22.3795C167.527 21.8018 168.038 21.1795 168.591 20.5129C169.144 19.8413 169.667 19.2191 170.161 18.6462C170.284 18.4684 170.423 18.3474 170.576 18.2808C170.734 18.2166 170.837 18.182 170.892 18.182C171.588 18.182 171.939 18.4561 171.939 19.0018C171.939 19.1549 171.899 19.3079 171.82 19.466C169.502 22.661 168.109 25.0931 167.643 26.7647C170.63 23.7771 173.035 21.5277 174.852 20.0191C176.669 18.5129 177.962 17.7573 178.733 17.7573C179.147 17.7573 179.463 17.824 179.681 17.9549C179.898 18.0882 180.006 18.3302 180.006 18.6857C180.006 18.8191 179.997 18.9228 179.977 19.0018C179.898 19.1795 179.367 19.9005 178.387 21.1647C177.794 21.8833 177.271 22.5376 176.817 23.1302C176.367 23.7228 176.002 24.2413 175.721 24.6808C175.259 25.3993 174.911 26.0734 174.674 26.7055C174.442 27.3376 174.328 27.8758 174.328 28.3153C174.328 28.4931 174.353 28.7104 174.407 28.9672C174.459 29.224 174.615 29.3524 174.871 29.3524C175.464 29.3524 176.392 28.8388 177.656 27.8116C178.249 27.2981 178.802 26.7795 179.315 26.2512C179.829 25.7178 180.317 25.1944 180.787 24.6808C180.885 24.5771 181.048 24.3746 181.28 24.0783C181.517 23.782 181.66 23.6339 181.715 23.6339C181.814 23.6339 181.863 23.74 181.863 23.9499C181.863 24.0487 181.804 24.224 181.685 24.4734C181.572 24.7178 181.453 24.903 181.33 25.0265C181.038 25.3623 180.619 25.8265 180.066 26.4191C179.513 27.0116 178.893 27.6191 178.209 28.2363C177.53 28.8561 176.869 29.387 176.224 29.8265C175.577 30.261 175.012 30.4783 174.526 30.4783Z" fill="#FF8183"/>
<path d="M182.83 30.597C182.211 30.597 181.591 30.3797 180.974 29.9451C180.354 29.5056 180.011 28.9871 179.937 28.3945C179.68 26.4068 180.927 24.0463 183.68 21.313C186.41 18.5871 188.874 17.2241 191.066 17.2241C191.659 17.2241 192.123 17.3673 192.458 17.6488C192.636 17.8266 192.767 18.071 192.853 18.3797C192.945 18.6908 193.016 18.8439 193.071 18.8439C193.174 18.8439 193.263 18.8241 193.337 18.7846C193.416 18.7451 193.508 18.7254 193.614 18.7254C193.922 18.7254 194.192 18.8439 194.424 19.0809C194.653 19.313 194.782 19.5155 194.809 19.6933C194.833 19.7476 194.011 21.0217 192.34 23.5155C190.661 25.9649 189.901 27.6291 190.059 28.5031C190.182 29.0957 190.466 29.392 190.908 29.392C192.244 29.392 194.69 27.1772 198.245 22.7451C198.324 22.6463 198.403 22.597 198.482 22.597C198.606 22.597 198.67 22.6858 198.67 22.8636C198.67 23.0686 198.554 23.3254 198.324 23.634C195.051 28.0389 192.54 30.2414 190.79 30.2414C190.557 30.2414 190.34 30.2068 190.138 30.1328C189.005 29.6933 188.439 28.8389 188.439 27.5747C188.439 27.1402 188.489 26.7031 188.587 26.2612L186.198 28.5821C185.472 29.3081 184.82 29.8241 184.242 30.1328C183.662 30.4414 183.191 30.597 182.83 30.597ZM182.485 29.7377C183.978 29.7377 186.013 28.1056 188.587 24.8389L192.686 19.1896C192.481 18.8291 192.145 18.6463 191.678 18.6463C190.111 18.6463 187.988 19.9105 185.309 22.4389C182.524 25.0142 181.273 27.1402 181.556 28.8192C181.687 29.4315 181.996 29.7377 182.485 29.7377Z" fill="#FF8183"/>
<path d="M200.607 30.4781C199.395 30.4781 198.499 30.0805 197.921 29.283C197.341 28.4805 196.869 27.3719 196.509 25.9546C196.05 26.4163 195.726 26.646 195.541 26.646C195.418 26.646 195.354 26.5447 195.354 26.3398C195.354 26.1892 195.418 26.0484 195.541 25.9151C195.541 25.9151 195.872 25.5176 196.529 24.72C197.185 23.9176 198.301 22.7941 199.876 21.3521L204.745 16.799C205.409 16.1546 205.942 15.6632 206.345 15.3274C206.744 14.9916 207.036 14.8237 207.214 14.8237C208.036 14.8237 208.448 15.1348 208.448 15.7521C208.448 16.0632 208.28 16.4237 207.944 16.8385C207.688 17.1422 207.5 17.3793 207.381 17.5497C207.268 17.7151 207.199 17.8114 207.174 17.8361C206.712 18.641 206.288 20.0731 205.9 22.1324C205.616 23.6484 205.369 24.8953 205.16 25.8756C204.955 26.8583 204.789 27.5645 204.666 27.999C205.745 27.9743 206.811 27.641 207.865 27.0015C208.924 26.3571 210.06 25.3003 211.272 23.8311C211.324 23.7793 211.401 23.7027 211.499 23.604C211.603 23.5003 211.709 23.446 211.815 23.446C211.966 23.446 212.042 23.5102 212.042 23.6336C212.042 23.7669 212.003 23.8978 211.924 24.0287C211.85 24.1546 211.776 24.2706 211.697 24.3743C210.899 25.3225 210.151 26.1003 209.455 26.7052C208.756 27.3126 208.023 27.7892 207.253 28.1373C206.483 28.4879 205.567 28.7768 204.508 29.0064L203.273 29.8163C202.938 30.0534 202.535 30.2262 202.069 30.3299C201.607 30.4287 201.121 30.4781 200.607 30.4781ZM201.071 28.5027C201.664 28.5027 202.153 28.362 202.543 28.0781C202.824 27.9274 203.101 27.5003 203.372 26.7941C203.641 26.083 203.905 25.199 204.162 24.1373C204.365 23.2361 204.528 22.3546 204.646 21.4904C204.765 20.6287 204.873 19.799 204.972 19.0015L205.13 17.6879C204.537 18.1225 203.789 18.7546 202.888 19.5842C201.985 20.4089 201.096 21.2706 200.222 22.1719C199.346 23.0682 198.78 23.7299 198.524 24.1571C198.267 24.5867 198.124 24.9027 198.099 25.1052C197.993 26.1324 198.242 26.9571 198.849 27.5743C199.454 28.1941 200.195 28.5027 201.071 28.5027Z" fill="#FF8183"/>
<path d="M23.6657 26.4021C23.1868 25.4861 23.3077 24.3577 23.9422 23.654C23.9545 23.654 23.9743 23.649 23.9792 23.6564C24.0483 23.7404 24.1175 23.8268 24.1915 23.9206C24.1496 23.9922 24.1224 24.054 24.0804 24.1083C23.8138 24.4465 23.6558 24.8194 23.6558 25.2589C23.6583 26.4614 24.5125 26.9206 25.4901 26.8688C25.6135 26.8638 25.7345 26.8293 25.8876 26.8046C26.0061 27.0095 26.1221 27.2046 26.2801 27.4786C25.2161 27.4515 24.3298 27.2391 23.6657 26.4021Z" fill="#FF8183"/>
<path d="M24.0953 24.8095C24.1718 24.6046 24.2434 24.4318 24.3199 24.2466C24.4878 24.3453 24.5298 24.4342 24.468 24.5774C24.4162 24.7034 24.3693 24.8416 24.3594 24.975C24.3372 25.296 24.5174 25.6046 24.8186 25.6244C25.2482 25.6515 25.4062 25.9404 25.5814 26.2392C25.6481 26.3552 25.7073 26.4762 25.774 26.6046C24.8235 26.7947 24.1051 26.2194 24.0558 25.2565C24.0483 25.1207 24.0755 24.9799 24.0953 24.8095Z" fill="#FF8183"/>
<path d="M24.6359 25.1013C24.631 24.9952 24.6359 24.9186 24.6384 24.8421C24.6631 24.8347 24.6877 24.8248 24.71 24.8174C24.8137 25.0075 24.9173 25.1976 25.0507 25.4445C24.7865 25.4149 24.71 25.2791 24.6359 25.1013Z" fill="#FF8183"/>
<mask id="mask0_2029_1856" style="mask-type:luminance" maskUnits="userSpaceOnUse" x="7" y="18" width="28" height="20">
<path d="M7.48798 18.1826H34.664V37.4246H7.48798V18.1826Z" fill="white"/>
</mask>
<g mask="url(#mask0_2029_1856)">
<path d="M26.3393 31.8691C25.0432 30.6543 23.7052 29.5481 22.177 28.679C21.4191 28.2469 20.8488 27.5827 20.3452 26.8666C19.6984 25.9456 19.2886 24.9456 19.2367 23.8049C19.2219 23.4913 19.0911 23.1827 18.9874 22.879C18.9479 22.7654 18.8368 22.674 18.7603 22.5728C18.7282 22.5851 18.6961 22.5975 18.664 22.6098C18.664 22.6963 18.6492 22.7851 18.6665 22.8666C18.7948 23.4963 18.9257 24.1234 19.0664 24.7481C19.1182 24.9802 19.0911 25.1753 18.943 25.3753C18.585 25.8567 18.2246 26.3382 17.911 26.8469C17.442 27.6049 17.0149 28.3901 16.5656 29.1605C16.3681 29.4987 16.1607 29.8271 15.9632 30.1654C15.7533 30.5234 15.4324 30.7284 15.0448 30.8444C14.4967 31.0074 13.9413 31.1506 13.4031 31.3407C12.6156 31.6172 11.8404 31.9308 11.0553 32.2172C10.6381 32.3703 10.2184 32.5358 9.7839 32.6296C9.1914 32.7555 8.65074 32.6246 8.22858 32.1432C8.11502 32.0123 8.06071 31.9061 8.1644 31.7382C8.80874 30.6963 9.17412 29.5333 9.51727 28.3728C9.92708 26.9753 10.4603 25.6296 11.0701 24.3111C11.1318 24.1777 11.2182 24.0395 11.3269 23.9432C12.1243 23.2691 12.9316 22.6024 13.7364 21.9333C14.8448 21.0123 16.0298 20.2049 17.3259 19.5629C17.5456 19.4543 17.7382 19.4296 17.995 19.5012C18.6862 19.6864 19.3157 19.4691 19.8761 19.0469C20.0514 18.9135 20.2144 18.7605 20.3872 18.6123C20.7377 18.8172 21.0784 19.0024 21.4018 19.2148C21.55 19.3111 21.6981 19.4419 21.7845 19.5901C22.1548 20.2469 22.5004 20.916 22.8609 21.5753C23.0658 21.9555 23.283 22.3308 23.4953 22.7086C23.6089 22.9135 23.72 23.1209 23.836 23.3308C23.3744 23.837 23.1275 24.4172 23.0633 25.0765C22.9522 26.2 23.4534 27.0493 24.5001 27.4592C25.0235 27.6642 25.5666 27.8074 26.1344 27.6691C26.3764 27.6123 26.4924 27.7358 26.6134 27.9037C26.9615 28.3753 27.3046 28.8469 27.6675 29.3061C28.3267 30.1382 29.05 30.8987 29.9116 31.5407C30.714 32.1407 31.4151 32.8716 32.0273 33.674C32.6075 34.4345 33.3086 35.0716 34.0492 35.6666C34.0591 35.674 34.0715 35.6814 34.0838 35.6888C34.3504 35.879 34.6294 36.0864 34.5751 36.4567C34.5208 36.8246 34.19 36.9654 33.8838 37.0543C33.4444 37.1827 32.9901 37.2642 32.5408 37.353C32.4347 37.3728 32.3112 37.358 32.21 37.3209C31.741 37.1481 31.2497 37.0419 30.8176 36.7629C30.6424 36.6493 30.398 36.637 30.1832 36.6C29.9091 36.5506 29.6277 36.5456 29.3586 36.479C28.7241 36.3259 28.2576 35.7481 28.3119 35.1012C28.3711 34.4296 28.1489 33.9111 27.6749 33.4592C27.4848 33.279 27.3589 33.0345 27.1886 32.8321C26.917 32.5135 26.6356 32.2049 26.3369 31.8691H26.3393ZM13.134 29.0592C14.4745 28.6024 14.8917 26.2246 14.0301 25.5802C13.8228 27.5358 12.4822 28.3703 10.8134 28.874C10.9269 29.0987 10.9269 29.1012 11.1294 29.1555C11.7836 29.3284 12.4279 29.2246 13.134 29.0592ZM20.3452 22.8691C20.5452 22.3876 20.8587 22.0864 21.5031 22.2024C21.0266 21.9728 20.6711 22.0642 20.3724 22.437C19.8663 23.0716 19.9551 24.0864 20.5699 24.6913C21.0735 25.1876 21.9178 25.2024 22.4239 24.7037C22.8856 24.2469 23.0584 23.6691 22.9028 23.0518C22.7522 22.4518 22.3424 22.0321 21.7302 21.8469C21.6709 21.8296 21.5969 21.8567 21.4364 21.874C21.6265 21.9851 21.7302 22.0493 21.8388 22.1061C22.7276 22.5679 22.8436 23.5185 22.3227 24.279C21.9524 24.8222 21.2241 24.8839 20.755 24.4222C20.3378 24.0123 20.1724 23.516 20.3452 22.8691ZM21.4636 24.2987C21.8882 24.0493 22.0388 23.6543 22.0758 23.2024C21.9104 23.4395 21.7746 23.7037 21.5796 23.9086C21.3796 24.116 21.1006 24.0247 21.0439 23.7407C21.0044 23.5432 21.0463 23.3284 21.0611 23.1234C21.0686 22.9926 21.0957 22.8617 21.113 22.7432C20.9056 22.6691 20.8044 22.7654 20.7723 22.8864C20.6982 23.1481 20.602 23.4222 20.6118 23.6888C20.6291 24.1481 20.918 24.3481 21.4636 24.2987ZM12.8106 30.0197C12.7859 29.9061 12.8007 29.7605 12.5983 29.7679C12.5291 30.0172 12.6032 30.1926 12.855 30.3703C12.8402 30.2345 12.8303 30.158 12.8106 30.0197ZM13.9684 29.5185C14.0622 29.5629 14.1166 29.7185 14.3141 29.5753C14.2351 29.479 14.1388 29.3975 14.0277 29.3555C13.924 29.316 13.8721 29.3728 13.9684 29.5185ZM15.0226 28.5061C14.914 28.4814 14.7979 28.4172 14.6992 28.5827C14.8671 28.6938 15.0201 28.7061 15.2571 28.6345C15.1608 28.5802 15.1213 28.5555 15.0226 28.5061ZM15.3608 27.2246C15.2522 27.2197 15.1189 27.1506 15.0473 27.3481C15.2003 27.3728 15.3262 27.4222 15.3608 27.2246Z" fill="#FF8183"/>
</g>
<path d="M4.12549 32.6369C3.58977 32.632 3.09108 32.632 2.5603 32.632C2.61461 32.5802 2.65658 32.5061 2.71583 32.4863C2.90099 32.432 3.09108 32.3851 3.28365 32.3579C3.76505 32.2937 4.2514 32.2468 4.73527 32.1851C4.83649 32.1703 4.93277 32.1184 5.02905 32.0419C4.6069 31.8024 4.16499 32.1357 3.67865 31.9308C3.96255 31.8913 4.18968 31.8295 4.41433 31.8345C4.88833 31.8444 5.3179 31.6863 5.75487 31.5406C5.96718 31.469 6.09308 31.3061 6.16221 31.0962C6.39674 30.4098 6.6609 29.7332 6.85593 29.0345C6.96455 28.6369 7.00899 28.2073 6.99665 27.795C6.95961 26.5876 7.25586 25.4444 7.55952 24.2962C7.78665 23.4345 7.97921 22.5653 8.17424 21.6962C8.39396 20.7209 8.29521 19.753 8.06561 18.7974C7.79652 17.674 7.70024 16.5406 7.80886 15.3925C7.85577 14.9061 7.88293 14.4197 7.92736 13.9332C8.02365 12.874 8.62849 12.1703 9.52958 11.6863C9.81102 11.5332 10.1073 11.4098 10.3961 11.2666C10.8578 11.0345 11.3688 11.0369 11.8626 10.9826C12.6205 10.8962 13.3389 10.716 14.0104 10.3406C14.6127 10.0048 14.9584 9.54065 14.9559 8.83448C14.9559 8.24929 14.9658 7.66164 14.9781 7.07645C14.9855 6.84188 15.0102 6.60731 15.0275 6.35299C15.1633 6.32089 15.2818 6.29373 15.3953 6.26904C15.4348 6.31596 15.4743 6.34065 15.4867 6.37768C15.6274 6.77522 15.9335 7.00978 16.289 7.19003C16.5877 7.34065 16.8914 7.48386 17.1975 7.61966C17.6444 7.81966 18.1085 7.97028 18.6047 7.98756C18.6812 7.99003 18.7553 8.02213 18.8985 8.0567C18.664 8.17768 18.4936 8.2641 18.3208 8.35299C17.9604 8.54065 17.7826 8.83694 17.8271 9.24188C17.911 9.97275 17.8246 10.6765 17.6641 11.395C17.4864 12.1826 17.4246 12.995 17.3012 13.795C17.1951 14.4839 17.0395 15.1678 16.963 15.8592C16.8865 16.5629 16.8568 17.2765 16.8494 17.9851C16.842 18.4271 17.0173 18.8295 17.358 19.1752C17.0445 19.4123 16.7038 19.5382 16.3433 19.7085C16.331 19.2987 16.5606 18.9481 16.3902 18.5184C16.3236 18.6295 16.2742 18.674 16.2717 18.7209C16.2396 19.2765 15.8446 19.6468 15.583 20.0839C15.4941 20.232 15.3311 20.3431 15.188 20.4493C14.4202 21.0295 13.6376 21.5925 12.8747 22.1802C12.3909 22.553 11.9341 22.9604 11.4058 23.3999C11.5317 22.516 11.6478 21.6962 11.7663 20.8518C12.1884 20.9629 12.6007 21.074 13.0155 21.1777C13.2574 21.2394 13.371 21.2123 13.6154 21.0444C13.5265 21.0098 13.4549 20.953 13.3858 20.9579C12.976 20.9851 12.6229 20.795 12.2724 20.6345C11.9267 20.4765 11.7366 20.2024 11.7218 19.7777C11.67 18.3011 11.5811 16.8246 11.5071 15.3481C11.5046 15.3061 11.512 15.2567 11.4947 15.2246C11.4503 15.1456 11.391 15.0765 11.3392 15.0048C11.2676 15.0641 11.1639 15.1085 11.1318 15.1826C11.075 15.3085 11.0331 15.4542 11.0405 15.5876C11.0627 15.99 11.0429 16.4123 11.1664 16.7851C11.4676 17.6987 11.4453 18.6295 11.4182 19.5629C11.3935 20.3579 11.354 21.153 11.2873 21.9456C11.2404 22.5283 11.1244 23.0962 10.8652 23.6394C10.6627 24.0641 10.5615 24.5357 10.3936 24.9802C10.1369 25.6567 9.85546 26.3258 9.59871 27.0048C9.48021 27.316 9.36911 27.6369 9.3074 27.9629C9.17902 28.6295 8.93708 29.2468 8.63343 29.8493C8.50258 30.1086 8.39643 30.3851 8.27546 30.6518C8.07302 31.0937 7.8928 31.5505 7.65827 31.9752C7.11268 32.9629 6.38687 33.1999 5.41912 32.9406C5.00437 32.8271 4.57974 32.7406 4.12549 32.6369ZM9.47033 16.8962C9.41602 16.9481 9.36171 16.9974 9.30246 17.0542C9.09015 16.6048 9.25061 16.2172 9.38393 15.8172C9.48021 15.5234 9.61352 15.3184 9.92211 15.195C10.7022 14.8863 10.8331 14.0394 10.3936 13.2542C10.3862 13.2394 10.3418 13.2444 10.2653 13.2345C10.0604 13.6048 10.0554 14.1258 9.61352 14.4024C9.56415 14.2295 9.52465 14.0962 9.48515 13.9604C9.45552 13.9629 9.4259 13.9653 9.39874 13.9653C9.3543 14.1308 9.31233 14.2937 9.26543 14.474C8.85561 14.1999 9.06546 13.669 8.78649 13.3505C8.49271 13.4913 8.46061 13.7382 8.45568 13.9653C8.44086 14.6814 8.64824 15.311 9.26543 15.7456C9.20371 15.9431 9.1494 16.1184 9.06546 16.3851C8.80377 16.0789 8.6038 15.8444 8.40383 15.6123C8.37915 15.6271 8.34211 15.6345 8.33471 15.6518C8.10758 16.3184 8.31002 17.1406 8.93215 17.4839C9.06546 17.5555 9.13458 17.632 9.1889 17.7752C9.49996 18.6172 9.62093 19.474 9.46293 20.3653C9.44811 20.4444 9.47774 20.5308 9.48761 20.6123C9.52218 20.6123 9.55674 20.6098 9.5913 20.6073C10.0653 19.7061 10.0209 18.8048 9.49255 17.8839C9.69499 17.7777 9.86533 17.6839 10.0357 17.5974C10.285 17.4715 10.4875 17.2987 10.527 17.0123C10.6035 16.4345 10.4529 15.8987 10.1937 15.3727C10.1122 15.4789 10.0554 15.5876 10.0456 15.7011C10.011 16.153 9.81349 16.5283 9.47033 16.8962ZM13.7734 14.9777C13.6672 14.9431 13.5512 14.9283 13.4574 14.874C13.013 14.6221 12.9488 14.0468 13.3142 13.7061C13.4475 13.5826 13.603 13.5135 13.7709 13.6098C13.9314 13.7011 14.0696 13.8444 14.04 14.0444C14.0276 14.1406 13.919 14.2888 13.8351 14.3011C13.6499 14.3308 13.6623 14.1802 13.6919 14.0444C13.6993 14.0197 13.6549 13.9851 13.6326 13.953C13.4129 14.1629 13.3858 14.3234 13.5413 14.4715C13.687 14.6123 13.9091 14.6098 14.0696 14.4641C14.2869 14.269 14.2943 13.9011 14.0894 13.6271C13.8771 13.3431 13.5586 13.2765 13.2846 13.4715C12.9611 13.6987 12.813 14.0295 12.8402 14.4098C12.8673 14.7999 13.0969 15.0839 13.45 15.2468C13.9116 15.4616 14.3659 15.3209 14.7856 14.8567C15.2423 14.3481 15.2546 13.9752 14.8251 13.4542C14.7559 13.3678 14.6794 13.2863 14.6029 13.2048C14.3511 12.9456 14.0351 12.8666 13.687 12.8913C13.5611 12.8987 13.4351 12.9184 13.4031 13.0765C14.0276 13.074 14.5584 13.5135 14.6152 14.0814C14.6522 14.4444 14.2844 14.869 13.7734 14.9777Z" fill="#FF8183"/>
<path d="M6.1647 33.3702C6.87817 33.3652 7.33242 32.9578 7.74223 32.5208C8.06564 32.6467 8.36189 32.7603 8.65567 32.8813C9.27286 33.1356 9.87523 33.0764 10.4875 32.8467C12.186 32.2072 13.887 31.5801 15.5879 30.9529C16.1952 30.7307 16.8346 30.6591 17.474 30.5998C18.0838 30.543 18.6911 30.4912 19.3083 30.6097C19.5848 30.664 19.8885 30.5998 20.1798 30.5751C20.2514 30.5702 20.318 30.5109 20.4316 30.4517C20.0736 30.2615 19.733 30.1825 19.3898 30.1825C18.8467 30.1801 18.3011 30.1998 17.7629 30.2517C17.2543 30.301 16.7482 30.4047 16.2421 30.4838C16.2397 30.4541 16.2273 30.4196 16.2372 30.4047C16.647 29.9208 16.9285 29.3652 17.1753 28.7825C17.558 27.8912 18.1233 27.1134 18.7134 26.3504C18.8837 26.1307 19.0392 25.901 19.2071 25.6689C19.5453 26.2689 19.4663 27.0541 19.0145 27.6344C18.7356 27.9924 18.4443 28.3381 18.1135 28.743C18.4764 28.7035 18.7973 28.6566 19.1207 28.6344C19.733 28.5924 20.3452 28.5603 20.9575 28.5356C21.271 28.5233 21.55 28.6072 21.8166 28.8023C22.1425 29.0368 22.5054 29.2196 22.8535 29.427C23.6533 29.8986 24.352 30.4936 24.9939 31.1603C25.1247 31.2961 25.1815 31.4294 25.1272 31.6097C25.0951 31.7159 25.0704 31.827 25.0334 31.9307C24.6976 32.8097 24.1471 33.5455 23.4484 34.1578C23.1892 34.385 22.814 34.4862 22.4856 34.6319C22.3869 34.6764 22.2659 34.6665 22.1597 34.7035C21.3747 34.9751 20.555 35.0492 19.733 35.0961C18.8022 35.1529 17.8666 35.1875 16.9359 35.2319C15.3756 35.306 13.8154 35.4122 12.2551 35.4443C10.9442 35.4714 9.6333 35.3751 8.32239 35.3973C6.81892 35.4196 5.31792 35.5455 3.8268 35.7924C3.05902 35.9208 2.27395 35.9702 1.4963 35.8196C0.893923 35.7035 0.619891 35.2788 0.701361 34.6615C0.800111 33.9282 1.31114 33.5307 1.86908 33.1677C1.92339 33.1307 1.99992 33.1208 2.06658 33.1183C2.66649 33.0838 3.26639 33.0196 3.86383 33.0319C4.29092 33.0393 4.71555 33.1504 5.14017 33.2171C5.47099 33.2689 5.79933 33.3208 6.1647 33.3702Z" fill="#FF8183"/>
<path d="M20.0786 12.3305C20.044 11.7083 20.0119 11.1256 19.9749 10.4712C20.1748 10.5157 20.3032 10.5379 20.4291 10.5725C20.9648 10.7182 21.5055 10.8515 22.0363 11.0194C22.3523 11.1206 22.6609 11.2614 22.9571 11.4095C23.2756 11.57 23.4311 11.8811 23.5447 12.1972C23.873 13.1107 23.8212 14.0095 23.3447 14.8564C23.0781 15.3305 22.7473 15.7651 22.4658 16.2293C22.1375 16.77 21.6388 17.1231 21.15 17.4935C20.8513 17.7206 20.5847 17.9848 20.3082 18.2391C19.8465 18.6663 19.3799 19.0885 18.7331 19.2145C18.2714 19.3009 17.7555 19.0589 17.516 18.6614C17.1753 18.0959 17.0889 17.4885 17.1901 16.8466C17.3333 15.9231 17.4864 14.9996 17.6147 14.0762C17.7258 13.2885 17.8122 12.4984 17.911 11.7083C17.9233 11.5996 17.9382 11.4861 17.9727 11.3799C18.19 10.7033 18.2122 10.007 18.1702 9.30828C18.1505 8.97001 18.2764 8.74779 18.5553 8.58482C18.8565 8.40951 19.1552 8.22927 19.4614 8.06383C19.57 8.00704 19.6959 7.98235 19.8169 7.95519C19.8983 7.93791 19.9847 7.95025 20.0662 7.93544C20.6637 7.83667 20.8883 7.59717 20.9451 6.99717C20.955 6.88853 20.9599 6.77988 20.9698 6.59717C21.0735 6.6984 21.1549 6.74779 21.187 6.81692C21.5006 7.48112 21.5006 8.14038 21.1302 8.77988C20.95 9.091 20.634 9.24161 20.3082 9.30828C19.9403 9.38235 19.7798 9.57742 19.7798 9.93544C19.7798 10.7848 19.7823 11.6342 19.7872 12.4836C19.7897 12.9033 19.7872 13.3206 19.7996 13.7379C19.8144 14.1848 19.8366 14.6293 19.8662 15.0737C19.8737 15.1626 19.923 15.2466 19.9798 15.4145C20.0415 15.2712 20.0909 15.2046 20.0934 15.1354C20.1008 14.9552 20.1008 14.7725 20.0835 14.5922C20.0637 14.3947 20.1279 14.2589 20.2785 14.1231C20.4736 13.9478 20.639 13.7354 20.7945 13.5206C20.876 13.407 20.9105 13.2564 20.9673 13.1206C20.9426 13.1033 20.9179 13.0885 20.8932 13.0712C20.6513 13.3231 20.4118 13.5725 20.1724 13.8243C20.1452 13.8169 20.1156 13.8095 20.086 13.7996C20.086 13.5626 20.0884 13.3231 20.086 13.0836C20.086 12.8466 20.0835 12.6095 20.0786 12.3305Z" fill="#FF8183"/>
<path d="M20.2119 3.69594C19.9576 3.72803 19.8761 3.48853 19.7181 3.3626C19.6268 3.28853 19.5552 3.19223 19.4441 3.07371C19.3577 3.35273 19.5157 3.47124 19.6367 3.59223C19.8761 3.82433 20.1329 4.03915 20.3748 4.27124C20.5057 4.39717 20.6341 4.52803 20.7328 4.67865C20.839 4.83915 20.8513 5.02433 20.7106 5.18236C20.6069 5.29841 20.5773 5.40458 20.6489 5.55766C20.7945 5.87124 20.8118 6.1947 20.7032 6.53297C20.6513 6.68853 20.6563 6.86384 20.6365 7.02927C20.5921 7.41692 20.4711 7.58976 20.0786 7.64655C19.6984 7.70334 19.2985 7.74285 18.9183 7.69347C18.3406 7.61939 17.7654 7.48359 17.2 7.33544C16.5705 7.17001 16.0446 6.84162 15.7805 6.20458C15.699 6.00952 15.5781 5.91569 15.3633 5.94779C14.9559 6.00952 14.7313 5.68853 14.8177 5.2268C14.8374 5.12063 14.9312 4.9947 15.0251 4.95026C15.0868 4.9231 15.2151 5.01692 15.3016 5.07371C15.3435 5.10087 15.3633 5.16507 15.3806 5.19717C15.7311 5.16507 15.936 4.97001 16.1311 4.77742C16.8692 4.03421 17.1951 3.12557 17.1926 2.08853C17.1926 1.57495 17.2371 1.52063 17.7407 1.44902C18.1776 1.38729 18.5652 1.48359 18.9133 1.76754C19.5379 2.27371 19.9502 2.92063 20.2119 3.69594Z" fill="#FF8183"/>
<mask id="mask1_2029_1856" style="mask-type:luminance" maskUnits="userSpaceOnUse" x="13" y="0" width="4" height="11">
<path d="M13.176 0.446777H16.968V10.5974H13.176V0.446777Z" fill="white"/>
</mask>
<g mask="url(#mask1_2029_1856)">
<path d="M13.603 5.34048C13.7339 4.98246 13.8623 4.659 13.9758 4.33061C14.1215 3.91086 14.2943 3.49604 14.3856 3.06394C14.5708 2.19728 14.8868 1.41209 15.5682 0.807152C15.8249 0.577522 16.1162 0.444189 16.489 0.473819C16.2767 0.634312 16.0668 0.802213 15.8496 0.957769C15.5657 1.16024 15.3781 1.42937 15.2768 1.76024C15.146 2.1874 15.0398 2.62197 14.8917 3.04172C14.7954 3.31332 14.6868 3.60221 14.5066 3.81703C13.8943 4.53802 13.7734 5.36765 13.9166 6.25407C14.0894 7.33555 14.0598 8.42444 14.0474 9.51086C14.0425 9.99727 13.9511 10.059 13.4475 10.1676C13.4475 9.11332 13.4302 8.05406 13.4524 6.99727C13.4648 6.45406 13.5438 5.91579 13.603 5.34048Z" fill="#FF8183"/>
</g>
<path d="M12.186 8.8417C12.223 8.0096 12.26 7.21701 12.2946 6.42441C12.3292 5.64664 12.5563 4.91824 12.8599 4.20713C12.9883 3.9133 13.1043 3.61454 13.2204 3.31577C13.3512 2.97503 13.408 2.62194 13.3784 2.25157C13.3611 2.06145 13.408 1.86639 13.4401 1.6738C13.4969 1.31577 13.7265 1.12812 14.1634 1.02441C13.7931 1.57997 13.84 2.16022 13.7487 2.71577C13.7018 3.01207 13.5808 3.3059 13.4426 3.5775C12.892 4.66639 12.6205 5.82194 12.6057 7.03923C12.5933 8.07133 12.5859 9.10096 12.576 10.1331C12.5736 10.2565 12.5612 10.38 12.5538 10.5479C12.3489 10.58 12.1514 10.6121 11.8996 10.6516C12.0008 10.0219 12.0922 9.45158 12.186 8.8417Z" fill="#FF8183"/>
<path d="M14.6671 4.8169C14.4252 5.23172 14.3659 5.62184 14.6128 6.02925C14.6646 6.1132 14.6646 6.23665 14.6622 6.34283C14.6548 6.77246 14.6375 7.20209 14.6251 7.63172C14.6103 8.11813 14.6078 8.60702 14.5807 9.09344C14.5683 9.29097 14.5461 9.50579 14.3659 9.65147C14.3313 9.61196 14.2993 9.59468 14.2993 9.57739C14.282 9.10332 14.2696 8.62925 14.2523 8.15764C14.2301 7.51813 14.1931 6.87863 14.1832 6.23912C14.1758 5.82431 14.1783 5.40455 14.2252 4.99468C14.2696 4.61443 14.4498 4.27369 14.7313 4.00455C14.9831 3.76505 15.1238 3.47122 15.2102 3.14036C15.2966 2.80455 15.3781 2.46628 15.4768 2.13295C15.6398 1.59468 15.9459 1.16999 16.4619 0.90332C16.0718 1.32554 15.9879 1.85641 15.8817 2.38727C15.7706 2.93542 15.5879 3.449 15.2003 3.88851C14.9757 4.14283 14.8547 4.48851 14.6671 4.8169Z" fill="#FF8183"/>
<path d="M13.5339 3.92317C13.8697 3.33305 14.0771 2.73799 14.161 2.0886C14.2252 1.58243 14.4671 1.13552 14.8325 0.767615C15.0423 0.555269 15.0571 0.547862 15.4892 0.503418C15.4398 0.565146 15.4102 0.609591 15.3756 0.646628C14.6424 1.38984 14.282 2.31083 14.0672 3.30836C14.003 3.60465 13.9116 3.90342 13.7857 4.17996C13.4105 5.00218 13.1858 5.8565 13.2006 6.76762C13.213 7.617 13.2204 8.46885 13.2253 9.31823C13.2253 9.58243 13.2031 9.84663 13.1957 10.1108C13.1908 10.3355 13.0797 10.4343 12.8427 10.4368C12.8328 10.3553 12.8131 10.2886 12.8155 10.2244C12.8649 8.90095 12.8797 7.57502 12.9785 6.2565C13.0377 5.46885 13.1266 4.66885 13.5339 3.92317Z" fill="#FF8183"/>
<path d="M16.847 1.72314C16.884 1.93549 16.8915 2.1429 16.9063 2.3503C16.9384 2.83919 16.852 3.29351 16.5606 3.69845C16.3582 3.97993 16.1681 4.27376 15.9509 4.5429C15.8521 4.66388 15.6966 4.74043 15.5139 4.87623C15.5139 4.75277 15.4941 4.69351 15.5164 4.65895C15.7287 4.33302 15.9212 3.98981 16.173 3.69351C16.4989 3.30833 16.61 2.87376 16.6495 2.38981C16.6668 2.16265 16.7606 1.9429 16.847 1.72314Z" fill="#FF8183"/>
<path d="M12.9661 2.27148C13.1019 2.85914 12.9488 3.37272 12.6921 3.86655C12.5365 4.16284 12.381 4.45667 12.186 4.74556C12.0848 4.52581 12.1045 4.30605 12.1712 4.0863C12.2971 3.67395 12.4205 3.25914 12.5686 2.85173C12.6501 2.62704 12.6921 2.36531 12.9661 2.27148Z" fill="#FF8183"/>
<path d="M15.9187 3.46397C15.7978 3.66891 15.6916 3.84669 15.6003 4.03434C15.4916 4.25657 15.3657 4.45904 15.1831 4.61706C15.1534 4.59978 15.1238 4.58249 15.0942 4.56521C15.1608 4.43928 15.2028 4.29114 15.2941 4.18743C15.7583 3.65657 15.9459 3.00225 16.1311 2.34546C16.178 2.17509 16.2372 2.00718 16.3039 1.80225C16.5581 2.31089 16.41 2.90842 15.9187 3.46397Z" fill="#FF8183"/>
<path d="M20.955 18.5926C20.876 18.5358 20.8192 18.4938 20.7674 18.4469C20.7501 18.4321 20.7476 18.4 20.7254 18.3407C20.9772 18.1284 21.2364 17.9111 21.545 17.6543C21.6487 18.1136 21.6388 18.5037 21.5672 18.9728C21.3451 18.8345 21.1624 18.721 20.955 18.5926Z" fill="#FF8183"/>
<path d="M20.8982 9.6815C20.9106 9.56051 20.9229 9.47409 20.9377 9.39014C21.15 9.73088 21.0389 10.0963 21.1056 10.4445C21.0784 10.4593 21.0538 10.4716 21.0266 10.484C20.9822 10.4222 20.9032 10.363 20.8982 10.2988C20.8834 10.1062 20.8958 9.91112 20.8982 9.6815Z" fill="#FF8183"/>
<path d="M20.2909 9.7972C20.2909 9.94288 20.286 10.0639 20.2786 10.1824C20.0539 10.2219 20.0045 10.1133 20.0366 9.95029C20.0613 9.82436 20.0638 9.63918 20.2909 9.7972Z" fill="#FF8183"/>
<path d="M20.5699 10.0048C20.5748 9.85911 20.5748 9.74059 20.5748 9.62207C20.5896 9.62207 20.6044 9.62207 20.6193 9.62207V10.2665C20.5995 10.269 20.5822 10.2715 20.5649 10.2739C20.5649 10.1924 20.5649 10.1134 20.5699 10.0048Z" fill="#FF8183"/>
<path d="M18.2468 1.00244C18.3875 1.02466 18.501 1.04935 18.6171 1.07158L18.5998 1.17034C18.464 1.13331 18.3307 1.09627 18.1949 1.05923C18.19 1.05676 18.185 1.03454 18.19 1.0296C18.1949 1.01726 18.2097 1.01232 18.2468 1.00244Z" fill="#FF8183"/>
<path d="M14.1017 27.7655C13.7931 28.5062 13.2871 28.9087 12.4946 28.9235C12.1934 28.9309 11.8897 28.9729 11.5861 29C11.5762 28.9729 11.5663 28.9457 11.5565 28.9186C11.9366 28.7186 12.3218 28.5334 12.6921 28.3186C13.0871 28.0914 13.3833 27.7457 13.5956 27.3531C13.8055 26.9729 13.9437 26.5507 14.1412 26.084C14.4029 26.6815 14.314 27.2099 14.1017 27.7655Z" fill="#FF8183"/>
<path d="M10.0678 14.7799C9.91718 14.8564 9.79374 14.9182 9.60858 15.007C9.66043 14.6712 9.91471 14.5305 10.0283 14.3083C10.1468 14.0762 10.248 13.8342 10.3566 13.5972C10.5591 14.0638 10.4776 14.4268 10.0678 14.7799Z" fill="#FF8183"/>
<path d="M10.169 16.2889C10.2135 16.2666 10.2777 16.2691 10.2777 16.2716C10.2826 16.479 10.3172 16.6963 10.2727 16.8938C10.2406 17.042 10.1295 17.1901 10.0135 17.2938C9.88514 17.4099 9.70986 17.4741 9.48767 17.5111C9.57408 17.3654 9.66542 17.2222 9.74936 17.0741C9.88761 16.8222 10.0209 16.5654 10.169 16.2889Z" fill="#FF8183"/>
<path d="M8.7618 14.6346C8.74452 14.526 8.73218 14.447 8.70996 14.2988C9.05312 14.6692 9.33456 14.9828 9.27284 15.5087C8.92474 15.3013 8.8729 14.9655 8.7618 14.6346Z" fill="#FF8183"/>
<path d="M8.96426 16.7949C8.97907 16.8887 8.98648 16.9554 9.00129 17.0813C8.64826 16.8665 8.54457 16.5801 8.48285 16.1899C8.76429 16.3381 8.91735 16.506 8.96426 16.7949Z" fill="#FF8183"/>
</svg>
